<svg xmlns="http://www.w3.org/2000/svg" width="340" height="200" viewBox="0 0 340 200"><style>* {
          font-family: 'Segoe UI', Ubuntu, "Helvetica Neue", Sans-Serif
        }</style><g class="gpsc-root"><rect x="1" y="1" rx="5" ry="5" height="99%" width="99.41176470588235%" stroke="#e4e2e2" stroke-width="1" fill="#ffffff" stroke-opacity="1"></rect><text x="30" y="40" class="gpsc-item" style="--gpsc-i: 0; font-size: 22px; fill: #0366d6;">Top Languages by Commit</text><g transform="translate(0,40)"><g transform="translate(40,0)"><rect y="18" width="14" height="14" class="gpsc-item" style="--gpsc-i: 0; stroke-width: 1px;" fill="#701516" stroke="#ffffff"></rect><rect y="43.2" width="14" height="14" class="gpsc-item" style="--gpsc-i: 1; stroke-width: 1px;" fill="#3178c6" stroke="#ffffff"></rect><rect y="68.4" width="14" height="14" class="gpsc-item" style="--gpsc-i: 2; stroke-width: 1px;" fill="#00ADD8" stroke="#ffffff"></rect><rect y="93.60000000000002" width="14" height="14" class="gpsc-item" style="--gpsc-i: 3; stroke-width: 1px;" fill="#f1e05a" stroke="#ffffff"></rect><rect y="118.80000000000001" width="14" height="14" class="gpsc-item" style="--gpsc-i: 4; stroke-width: 1px;" fill="#dea584" stroke="#ffffff"></rect><text x="16.8" y="30" class="gpsc-item" style="--gpsc-i: 0; fill: #586069; font-size: 14px;">Ruby</text><text x="16.8" y="55.2" class="gpsc-item" style="--gpsc-i: 1; fill: #586069; font-size: 14px;">TypeScript</text><text x="16.8" y="80.4" class="gpsc-item" style="--gpsc-i: 2; fill: #586069; font-size: 14px;">Go</text><text x="16.8" y="105.60000000000002" class="gpsc-item" style="--gpsc-i: 3; fill: #586069; font-size: 14px;">JavaScript</text><text x="16.8" y="130.8" class="gpsc-item" style="--gpsc-i: 4; fill: #586069; font-size: 14px;">Rust</text></g><g transform="translate( 230, 80 )"><g class="arc" style="--gpsc-i: 0;"><path d="M3.67394039744206e-15,-60A60,60,0,1,1,-6.403698066314216,59.65729336028817L-3.7354905386832926,34.80008779350143A35,35,0,1,0,2.1431318985078682e-15,-35Z" style="fill: #701516; stroke-width: 2px;" stroke="#ffffff"></path></g><g class="arc" style="--gpsc-i: 1;"><path d="M-6.403698066314216,59.65729336028817A60,60,0,0,1,-58.017421062948834,-15.296367320527471L-33.84349562005349,-8.922880936974359A35,35,0,0,0,-3.7354905386832926,34.80008779350143Z" style="fill: #3178c6; stroke-width: 2px;" stroke="#ffffff"></path></g><g class="arc" style="--gpsc-i: 2;"><path d="M-58.017421062948834,-15.296367320527471A60,60,0,0,1,-44.30416929372739,-40.46159392797994L-25.844098754674313,-23.602596457988298A35,35,0,0,0,-33.84349562005349,-8.922880936974359Z" style="fill: #00ADD8; stroke-width: 2px;" stroke="#ffffff"></path></g><g class="arc" style="--gpsc-i: 3;"><path d="M-44.30416929372739,-40.46159392797994A60,60,0,0,1,-22.802803809577313,-55.49803724837417L-13.301635555586765,-32.373855061551595A35,35,0,0,0,-25.844098754674313,-23.602596457988298Z" style="fill: #f1e05a; stroke-width: 2px;" stroke="#ffffff"></path></g><g class="arc" style="--gpsc-i: 4;"><path d="M-22.802803809577313,-55.49803724837417A60,60,0,0,1,-1.1021821192326178e-14,-60L-6.429395695523604e-15,-35A35,35,0,0,0,-13.301635555586765,-32.373855061551595Z" style="fill: #dea584; stroke-width: 2px;" stroke="#ffffff"></path></g></g></g></g></svg>