<svg xmlns="http://www.w3.org/2000/svg" width="340" height="200" viewBox="0 0 340 200"><style>* {
          font-family: 'Segoe UI', Ubuntu, "Helvetica Neue", Sans-Serif
        }</style><g class="gpsc-root"><rect x="1" y="1" rx="5" ry="5" height="99%" width="99.41176470588235%" stroke="#e4e2e2" stroke-width="1" fill="#ffffff" stroke-opacity="1"></rect><text x="30" y="40" class="gpsc-item" style="--gpsc-i: 0; font-size: 22px; fill: #0366d6;">Top Languages by Commit</text><g transform="translate(0,40)"><g transform="translate(40,0)"><rect y="18" width="14" height="14" class="gpsc-item" style="--gpsc-i: 0; stroke-width: 1px;" fill="#701516" stroke="#ffffff"></rect><rect y="43.2" width="14" height="14" class="gpsc-item" style="--gpsc-i: 1; stroke-width: 1px;" fill="#3178c6" stroke="#ffffff"></rect><rect y="68.4" width="14" height="14" class="gpsc-item" style="--gpsc-i: 2; stroke-width: 1px;" fill="#00ADD8" stroke="#ffffff"></rect><rect y="93.60000000000002" width="14" height="14" class="gpsc-item" style="--gpsc-i: 3; stroke-width: 1px;" fill="#f1e05a" stroke="#ffffff"></rect><rect y="118.80000000000001" width="14" height="14" class="gpsc-item" style="--gpsc-i: 4; stroke-width: 1px;" fill="#e34c26" stroke="#ffffff"></rect><text x="16.8" y="30" class="gpsc-item" style="--gpsc-i: 0; fill: #586069; font-size: 14px;">Ruby</text><text x="16.8" y="55.2" class="gpsc-item" style="--gpsc-i: 1; fill: #586069; font-size: 14px;">TypeScript</text><text x="16.8" y="80.4" class="gpsc-item" style="--gpsc-i: 2; fill: #586069; font-size: 14px;">Go</text><text x="16.8" y="105.60000000000002" class="gpsc-item" style="--gpsc-i: 3; fill: #586069; font-size: 14px;">JavaScript</text><text x="16.8" y="130.8" class="gpsc-item" style="--gpsc-i: 4; fill: #586069; font-size: 14px;">HTML</text></g><g transform="translate( 230, 80 )"><g class="arc" style="--gpsc-i: 0;"><path d="M3.67394039744206e-15,-60A60,60,0,1,1,-8.038324351436493,59.45910646504119L-4.689022538337954,34.68447877127403A35,35,0,1,0,2.1431318985078682e-15,-35Z" style="fill: #701516; stroke-width: 2px;" stroke="#ffffff"></path></g><g class="arc" style="--gpsc-i: 1;"><path d="M-8.038324351436493,59.45910646504119A60,60,0,0,1,-58.72573390819827,-12.299925891788595L-34.25667811311566,-7.174956770210014A35,35,0,0,0,-4.689022538337954,34.68447877127403Z" style="fill: #3178c6; stroke-width: 2px;" stroke="#ffffff"></path></g><g class="arc" style="--gpsc-i: 2;"><path d="M-58.72573390819827,-12.299925891788595A60,60,0,0,1,-44.5300825427358,-40.21283064815428L-25.975881483262548,-23.457484544756664A35,35,0,0,0,-34.25667811311566,-7.174956770210014Z" style="fill: #00ADD8; stroke-width: 2px;" stroke="#ffffff"></path></g><g class="arc" style="--gpsc-i: 3;"><path d="M-44.5300825427358,-40.21283064815428A60,60,0,0,1,-22.950823360969597,-55.43698861819221L-13.387980293898933,-32.33824336061212A35,35,0,0,0,-25.975881483262548,-23.457484544756664Z" style="fill: #f1e05a; stroke-width: 2px;" stroke="#ffffff"></path></g><g class="arc" style="--gpsc-i: 4;"><path d="M-22.950823360969597,-55.43698861819221A60,60,0,0,1,-6.431252637433369e-14,-60L-3.7515640385027985e-14,-35A35,35,0,0,0,-13.387980293898933,-32.33824336061212Z" style="fill: #e34c26; stroke-width: 2px;" stroke="#ffffff"></path></g></g></g></g></svg>